# xmcd
# 
# Track frame offsets:
#     150
#     17649
#     50260
#     82052
#     95404
#     123135
#     149314
#     175655
#     216213
# 
# Disc length: 3220
# 
# Revision: 2
# Processed by: cddbd v1.5.2PL0 Copyright (c) Steve Scherf et al.
# Submitted via: fre:ac v1.0.27
# 
DISCID=710c9209
DTITLE=PERSONNE Paul - À L'ouest
DYEAR=2011
DGENRE=Blues
TTITLE0=J'ai rêvé
TTITLE1=Où étais-tu ?
TTITLE2=Dancin'
TTITLE3=Caresses
TTITLE4=Qui t'aime vraiment ?
TTITLE5=Le monde est si grand
TTITLE6=Jerky (Les tueurs du Jerky Club)
TTITLE7=To A Friend (Blues For Calvin)
TTITLE8=Bonne soirée
EXTD=YEAR: 2011
EXTT0=
EXTT1=
EXTT2=
EXTT3=
EXTT4=
EXTT5=
EXTT6=
EXTT7=
EXTT8=
PLAYORDER=
